# Blender v2.79 (sub 0) OBJ File: 'Неко.blend'
# www.blender.org
mtllib Неко_хвост.mtl
o BezierCurve.004_CUBezierCurve.001
v -0.019883 0.158125 -0.599327
v 0.004762 0.169355 -0.603550
v 0.018082 0.191164 -0.593639
v 0.012270 0.210778 -0.575396
v -0.009264 0.216711 -0.559509
v -0.033908 0.205481 -0.555286
v -0.047229 0.183672 -0.565197
v -0.041416 0.164058 -0.583440
v 0.016391 0.114422 -0.513319
v 0.043089 0.127585 -0.519547
v 0.054150 0.155835 -0.517444
v 0.043089 0.182625 -0.508239
v 0.016391 0.192267 -0.497326
v -0.010306 0.179103 -0.491098
v -0.021368 0.150854 -0.493200
v -0.010306 0.124063 -0.502405
v 0.040966 0.115933 -0.419668
v 0.067164 0.129083 -0.427765
v 0.075602 0.157265 -0.435474
v 0.061330 0.183972 -0.438278
v 0.032715 0.193563 -0.434537
v 0.006517 0.180413 -0.426440
v -0.001922 0.152232 -0.418731
v 0.012351 0.125525 -0.415927
v 0.053236 0.152435 -0.332258
v 0.079168 0.164841 -0.342180
v 0.086376 0.189579 -0.358333
v 0.070629 0.212160 -0.371254
v 0.041159 0.219360 -0.373378
v 0.015228 0.206954 -0.363455
v 0.008020 0.182216 -0.347302
v 0.023766 0.159635 -0.334381
v 0.054077 0.216471 -0.259933
v 0.079985 0.227450 -0.271469
v 0.087094 0.246399 -0.294167
v 0.071232 0.262221 -0.314732
v 0.041698 0.265649 -0.321120
v 0.015791 0.254671 -0.309584
v 0.008681 0.235721 -0.286886
v 0.024543 0.219900 -0.266321
v 0.044136 0.301903 -0.210910
v 0.070296 0.310703 -0.223679
v 0.078322 0.321729 -0.250861
v 0.063505 0.328522 -0.276534
v 0.034532 0.327104 -0.285665
v 0.008372 0.318304 -0.272896
v 0.000346 0.307278 -0.245714
v 0.015163 0.300485 -0.220041
v 0.025014 0.397783 -0.194634
v 0.051633 0.403986 -0.207968
v 0.060874 0.408144 -0.236640
v 0.047315 0.407822 -0.263859
v 0.018907 0.403209 -0.273684
v -0.007712 0.397006 -0.260351
v -0.016953 0.392847 -0.231678
v -0.003394 0.393170 -0.204459
v 0.008126 0.491421 -0.194189
v 0.035069 0.495639 -0.207647
v 0.044580 0.498144 -0.236424
v 0.031079 0.497466 -0.263665
v 0.002483 0.494005 -0.273417
v -0.024460 0.489786 -0.259959
v -0.033970 0.487282 -0.231183
v -0.020470 0.487960 -0.203941
v 0.000224 0.578840 -0.187200
v 0.027244 0.582268 -0.200728
v 0.036568 0.586685 -0.229335
v 0.022727 0.589503 -0.256266
v -0.006164 0.589073 -0.265750
v -0.033184 0.585646 -0.252222
v -0.042509 0.581229 -0.223615
v -0.028667 0.578411 -0.196683
v -0.001875 0.656417 -0.172524
v 0.025129 0.660339 -0.185949
v 0.034340 0.668271 -0.213825
v 0.020355 0.675567 -0.239825
v -0.008628 0.677953 -0.248722
v -0.035631 0.674030 -0.235298
v -0.044842 0.666098 -0.207422
v -0.030857 0.658803 -0.181422
v -0.000681 0.715465 -0.150451
v 0.026356 0.721690 -0.162903
v 0.035659 0.735917 -0.188120
v 0.021769 0.749814 -0.211331
v -0.007169 0.755242 -0.218944
v -0.034207 0.749017 -0.206492
v -0.043509 0.734790 -0.181275
v -0.029619 0.720893 -0.158064
v 0.001271 0.748741 -0.124697
v 0.028509 0.759288 -0.133163
v 0.038242 0.782797 -0.149819
v 0.024761 0.805498 -0.164910
v -0.004029 0.814098 -0.169598
v -0.031267 0.803550 -0.161132
v -0.041001 0.780042 -0.144476
v -0.027520 0.757340 -0.129385
v 0.002210 0.758666 -0.096421
v 0.029614 0.771851 -0.096421
v 0.039674 0.800550 -0.096421
v 0.026489 0.827954 -0.096421
v -0.002210 0.838014 -0.096421
v -0.029614 0.824829 -0.096421
v -0.039674 0.796130 -0.096421
v -0.026489 0.768726 -0.096421
v -0.026282 0.190349 -0.615767
v -0.015516 0.195255 -0.617611
v -0.009697 0.204781 -0.613282
v -0.012237 0.213349 -0.605313
v -0.021643 0.215941 -0.598373
v -0.032408 0.211035 -0.596529
v -0.038227 0.201508 -0.600858
v -0.035688 0.192941 -0.608827
v -0.028285 0.209265 -0.610565
v -0.041657 0.175797 -0.596599
v -0.046505 0.192157 -0.581382
v -0.035395 0.210348 -0.573116
v -0.003141 0.180215 -0.613372
v -0.023696 0.170848 -0.609850
v 0.003122 0.214766 -0.589890
v 0.007970 0.198406 -0.605106
v -0.014839 0.219715 -0.576638
vt 0.004849 0.848258
vt 0.023092 0.926673
vt 0.004849 0.926673
vt 0.161541 0.848258
vt 0.179908 0.926673
vt 0.161542 0.926673
vt 0.141284 0.848258
vt 0.141284 0.926673
vt 0.118623 0.848258
vt 0.118623 0.926673
vt 0.093720 0.848258
vt 0.093720 0.926673
vt 0.067888 0.926673
vt 0.044382 0.926673
vt 0.067888 0.848258
vt 0.044382 0.848258
vt 0.004849 0.763366
vt 0.023092 0.848258
vt 0.161541 0.763366
vt 0.179908 0.848258
vt 0.141284 0.763366
vt 0.118623 0.763366
vt 0.093719 0.763366
vt 0.044382 0.763366
vt 0.023092 0.763366
vt 0.004849 0.676082
vt 0.161541 0.676082
vt 0.179908 0.763366
vt 0.141284 0.676082
vt 0.118623 0.676082
vt 0.067888 0.763366
vt 0.093719 0.676082
vt 0.044382 0.676082
vt 0.023092 0.676082
vt 0.004849 0.587646
vt 0.161541 0.587646
vt 0.179908 0.676081
vt 0.141284 0.587646
vt 0.118623 0.587646
vt 0.067888 0.676082
vt 0.093719 0.587646
vt 0.067888 0.587646
vt 0.023092 0.587646
vt 0.023092 0.497285
vt 0.161541 0.497285
vt 0.179908 0.587646
vt 0.141284 0.497285
vt 0.118623 0.497285
vt 0.093719 0.497285
vt 0.044382 0.587646
vt 0.067888 0.497285
vt 0.044381 0.497285
vt 0.004849 0.406986
vt 0.004849 0.497285
vt 0.179908 0.406986
vt 0.179908 0.497285
vt 0.161541 0.406986
vt 0.141284 0.406986
vt 0.118623 0.406986
vt 0.067888 0.406986
vt 0.044381 0.406986
vt 0.023092 0.406986
vt 0.004849 0.318214
vt 0.179908 0.318214
vt 0.161541 0.318214
vt 0.141284 0.318214
vt 0.093719 0.406986
vt 0.118623 0.318214
vt 0.067888 0.318214
vt 0.044381 0.318214
vt 0.023092 0.318214
vt 0.023092 0.236169
vt 0.179908 0.236169
vt 0.161541 0.236169
vt 0.141283 0.236169
vt 0.093719 0.236169
vt 0.093719 0.318214
vt 0.067888 0.236169
vt 0.044381 0.236169
vt 0.004849 0.162596
vt 0.004849 0.236169
vt 0.179908 0.162596
vt 0.161541 0.162596
vt 0.118623 0.236169
vt 0.141283 0.162596
vt 0.118623 0.162596
vt 0.067888 0.162596
vt 0.044381 0.162596
vt 0.023092 0.162596
vt 0.004849 0.101019
vt 0.179908 0.101019
vt 0.161541 0.101019
vt 0.141283 0.101019
vt 0.093719 0.162596
vt 0.118623 0.101019
vt 0.067888 0.101019
vt 0.044381 0.101019
vt 0.023092 0.101019
vt 0.004849 0.052778
vt 0.179908 0.052778
vt 0.161541 0.052778
vt 0.141283 0.052778
vt 0.093719 0.101019
vt 0.118623 0.052778
vt 0.067888 0.052778
vt 0.044381 0.052778
vt 0.023092 0.052778
vt 0.023092 0.004848
vt 0.179908 0.004848
vt 0.161541 0.004848
vt 0.141283 0.004848
vt 0.093719 0.004848
vt 0.093719 0.052778
vt 0.067888 0.004848
vt 0.044381 0.004848
vt 0.141284 0.939991
vt 0.118623 0.955938
vt 0.118623 0.939991
vt 0.161542 0.939991
vt 0.179908 0.955938
vt 0.161542 0.955938
vt 0.044382 0.939991
vt 0.067888 0.955938
vt 0.044382 0.955938
vt 0.023092 0.939991
vt 0.023092 0.955938
vt 0.141284 0.955938
vt 0.093720 0.955938
vt 0.093720 0.939991
vt 0.067888 0.939991
vt 0.004849 0.939991
vt 0.004849 0.955938
vt 0.202076 0.036999
vt 0.192864 0.031312
vt 0.202608 0.020725
vt 0.192787 0.010847
vt 0.201918 0.005032
vt 0.219820 0.014553
vt 0.219820 0.025379
vt 0.212778 0.035370
vt 0.189289 0.021093
vt 0.212652 0.006441
vt 0.179908 0.939991
vt 0.004849 0.004848
vt 0.118623 0.004848
vn 0.0052 -0.9750 -0.2222
vn -0.7894 -0.5751 -0.2145
vn -0.1677 -0.7987 -0.5778
vn 0.6489 -0.6629 -0.3734
vn 0.5222 -0.5022 -0.6892
vn 0.9424 0.0179 -0.3338
vn 0.8642 0.1517 -0.4797
vn 0.6949 0.7102 -0.1124
vn 0.6395 0.7650 -0.0751
vn 0.0046 0.9852 0.1711
vn 0.0069 0.9615 0.2745
vn -0.6504 0.6589 0.3778
vn -0.9828 0.0310 0.1818
vn -0.6990 0.6318 0.3348
vn -0.9557 -0.1089 0.2732
vn 0.1134 -0.9764 0.1835
vn -0.6482 -0.7604 0.0389
vn 0.7479 -0.6637 -0.0113
vn 0.9791 0.0185 -0.2023
vn 0.6476 0.7077 -0.2823
vn -0.0928 0.9770 -0.1917
vn -0.9696 -0.1093 0.2189
vn -0.5863 -0.7602 0.2798
vn 0.1598 -0.8417 0.5157
vn 0.7912 -0.5450 0.2774
vn 0.9914 0.0579 -0.1176
vn 0.6184 0.6412 -0.4543
vn -0.7800 0.6254 0.0224
vn -0.1433 0.8423 -0.5196
vn -0.9788 -0.1280 0.1601
vn -0.5619 -0.6788 0.4727
vn 0.1623 -0.6177 0.7695
vn 0.7942 -0.3546 0.4935
vn 0.9922 0.1091 -0.0603
vn 0.6153 0.5206 -0.5918
vn -0.8189 0.5129 -0.2573
vn -0.1485 0.6202 -0.7702
vn -0.8223 0.3293 -0.4641
vn -0.5607 -0.5434 0.6247
vn -0.5816 -0.3567 0.7311
vn 0.7642 -0.1063 0.6361
vn 0.9856 0.1671 -0.0242
vn 0.6376 0.3483 -0.6871
vn -0.1135 0.3164 -0.9418
vn -0.9794 -0.1598 0.1233
vn -0.7965 0.0841 -0.5987
vn -0.9748 -0.1958 0.1067
vn 0.0740 -0.0714 0.9947
vn 0.1268 -0.3181 0.9395
vn 0.7367 0.0833 0.6710
vn 0.9806 0.1911 -0.0435
vn 0.6461 0.1835 -0.7408
vn -0.7562 -0.0931 -0.6476
vn -0.9777 -0.1942 0.0803
vn -0.6298 -0.1845 0.7545
vn 0.0606 -0.0342 0.9976
vn 0.7489 0.0739 0.6585
vn 0.9876 0.1370 -0.0762
vn -0.0804 0.0637 -0.9947
vn 0.6379 0.1183 -0.7609
vn -0.7490 -0.0737 -0.6584
vn -0.9890 -0.1363 0.0562
vn -0.6590 -0.1210 0.7423
vn -0.6577 -0.1385 0.7404
vn 0.0736 -0.1284 0.9890
vn 0.7636 -0.0415 0.6443
vn 0.9938 0.0703 -0.0856
vn -0.0869 0.1288 -0.9879
vn -0.0808 0.0308 -0.9962
vn -0.7572 0.0434 -0.6517
vn -0.9960 -0.0669 0.0586
vn 0.0810 -0.2679 0.9600
vn 0.7727 -0.1681 0.6121
vn 0.6357 0.1404 -0.7590
vn 0.9943 0.0334 -0.1013
vn 0.6306 0.2153 -0.7456
vn -0.7564 0.1760 -0.6300
vn -0.9980 -0.0212 0.0602
vn -0.6580 -0.2059 0.7243
vn 0.0816 -0.4874 0.8694
vn 0.7792 -0.3289 0.5334
vn 0.9923 0.0343 -0.1188
vn -0.0885 0.2730 -0.9579
vn 0.6257 0.3779 -0.6824
vn -0.7440 0.3570 -0.5648
vn -0.9985 0.0059 0.0544
vn -0.6666 -0.3464 0.6600
vn 0.0755 -0.8120 0.5787
vn 0.7885 -0.5190 0.3298
vn 0.9905 0.0906 -0.1029
vn -0.0809 0.5069 -0.8581
vn 0.6276 0.6322 -0.4543
vn -0.7192 0.5886 -0.3692
vn -0.9993 0.0220 0.0301
vn -0.6937 -0.5719 0.4377
vn -0.6844 -0.6828 0.2555
vn 0.0674 -0.9427 0.3265
vn 0.7761 -0.6035 0.1830
vn 0.9891 0.1301 -0.0681
vn -0.0441 0.9498 -0.3097
vn -0.0602 0.8277 -0.5580
vn -0.6907 0.6922 -0.2093
vn -0.9995 0.0234 0.0197
vn 0.6770 0.3169 -0.6642
vn 0.2021 0.8399 -0.5037
vn 0.4782 0.8370 -0.2658
vn 0.3592 -0.2579 -0.8969
vn -0.3702 -0.1049 -0.9230
vn 0.0721 0.0880 -0.9935
vn -0.9713 0.2215 -0.0865
vn -0.6371 0.7565 -0.1474
vn -0.8713 0.3618 -0.3313
vn -0.8328 -0.3000 -0.4652
vn -0.7587 0.0096 -0.6514
vn 0.3090 0.4796 -0.8212
vn -0.1877 0.9568 -0.2218
vn -0.0801 0.9955 0.0497
vn -0.6616 0.7406 0.1174
vn -0.2826 -0.5143 -0.8097
vn -0.4205 0.6137 -0.6682
vn 0.6124 0.7464 -0.2602
usemtl None
s 1
f 9/1/1 8/2/2 1/3/3
f 10/4/4 1/5/3 2/6/5
f 11/7/6 2/6/5 3/8/7
f 12/9/8 3/8/7 4/10/9
f 13/11/10 4/10/9 5/12/11
f 6/13/12 13/11/10 5/12/11
f 7/14/13 14/15/14 6/13/12
f 8/2/2 15/16/15 7/14/13
f 17/17/16 16/18/17 9/1/1
f 18/19/18 9/20/1 10/4/4
f 11/7/6 18/19/18 10/4/4
f 12/9/8 19/21/19 11/7/6
f 13/11/10 20/22/20 12/9/8
f 14/15/14 21/23/21 13/11/10
f 23/24/22 14/15/14 15/16/15
f 24/25/23 15/16/15 16/18/17
f 25/26/24 24/25/23 17/17/16
f 26/27/25 17/28/16 18/19/18
f 19/21/19 26/27/25 18/19/18
f 20/22/20 27/29/26 19/21/19
f 21/23/21 28/30/27 20/22/20
f 22/31/28 29/32/29 21/23/21
f 31/33/30 22/31/28 23/24/22
f 32/34/31 23/24/22 24/25/23
f 33/35/32 32/34/31 25/26/24
f 34/36/33 25/37/24 26/27/25
f 35/38/34 26/27/25 27/29/26
f 28/30/27 35/38/34 27/29/26
f 29/32/29 36/39/35 28/30/27
f 30/40/36 37/41/37 29/32/29
f 31/33/30 38/42/38 30/40/36
f 40/43/39 31/33/30 32/34/31
f 33/35/32 48/44/40 40/43/39
f 42/45/41 33/46/32 34/36/33
f 43/47/42 34/36/33 35/38/34
f 44/48/43 35/38/34 36/39/35
f 45/49/44 36/39/35 37/41/37
f 38/42/38 45/49/44 37/41/37
f 39/50/45 46/51/46 38/42/38
f 40/43/39 47/52/47 39/50/45
f 49/53/48 48/44/40 41/54/49
f 42/45/41 49/55/48 41/56/49
f 43/47/42 50/57/50 42/45/41
f 44/48/43 51/58/51 43/47/42
f 45/49/44 52/59/52 44/48/43
f 54/60/53 45/49/44 46/51/46
f 55/61/54 46/51/46 47/52/47
f 56/62/55 47/52/47 48/44/40
f 57/63/56 56/62/55 49/53/48
f 50/57/50 57/64/56 49/55/48
f 51/58/51 58/65/57 50/57/50
f 52/59/52 59/66/58 51/58/51
f 53/67/59 60/68/60 52/59/52
f 62/69/61 53/67/59 54/60/53
f 63/70/62 54/60/53 55/61/54
f 64/71/63 55/61/54 56/62/55
f 57/63/56 72/72/64 64/71/63
f 58/65/57 65/73/65 57/64/56
f 59/66/58 66/74/66 58/65/57
f 60/68/60 67/75/67 59/66/58
f 69/76/68 60/68/60 61/77/69
f 70/78/70 61/77/69 62/69/61
f 71/79/71 62/69/61 63/70/62
f 72/72/64 63/70/62 64/71/63
f 73/80/72 72/72/64 65/81/65
f 66/74/66 73/82/72 65/73/65
f 67/75/67 74/83/73 66/74/66
f 68/84/74 75/85/75 67/75/67
f 69/76/68 76/86/76 68/84/74
f 78/87/77 69/76/68 70/78/70
f 79/88/78 70/78/70 71/79/71
f 80/89/79 71/79/71 72/72/64
f 81/90/80 80/89/79 73/80/72
f 74/83/73 81/91/80 73/82/72
f 75/85/75 82/92/81 74/83/73
f 76/86/76 83/93/82 75/85/75
f 77/94/83 84/95/84 76/86/76
f 86/96/85 77/94/83 78/87/77
f 87/97/86 78/87/77 79/88/78
f 88/98/87 79/88/78 80/89/79
f 89/99/88 88/98/87 81/90/80
f 82/92/81 89/100/88 81/91/80
f 83/93/82 90/101/89 82/92/81
f 84/95/84 91/102/90 83/93/82
f 85/103/91 92/104/92 84/95/84
f 94/105/93 85/103/91 86/96/85
f 95/106/94 86/96/85 87/97/86
f 96/107/95 87/97/86 88/98/87
f 89/99/88 104/108/96 96/107/95
f 90/101/89 97/109/97 89/100/88
f 91/102/90 98/110/98 90/101/89
f 92/104/92 99/111/99 91/102/90
f 101/112/100 92/104/92 93/113/101
f 102/114/102 93/113/101 94/105/93
f 103/115/103 94/105/93 95/106/94
f 104/108/96 95/106/94 96/107/95
f 120/116/104 108/117/105 119/118/106
f 117/119/107 105/120/108 106/121/109
f 115/122/110 110/123/111 111/124/112
f 114/125/113 111/124/112 112/126/114
f 117/119/107 107/127/115 120/116/104
f 119/118/106 109/128/116 121/129/117
f 121/129/117 110/123/111 116/130/118
f 118/131/119 112/126/114 105/132/108
f 112/133/114 111/134/112 113/135/120
f 109/136/116 108/137/105 113/135/120
f 106/138/109 105/139/108 113/135/120
f 105/140/108 112/133/114 113/135/120
f 110/141/111 109/136/116 113/135/120
f 107/142/115 106/138/109 113/135/120
f 111/134/112 110/141/111 113/135/120
f 108/137/105 107/142/115 113/135/120
f 1/3/3 114/125/113 118/131/119
f 5/12/11 116/130/118 6/13/12
f 4/10/9 121/129/117 5/12/11
f 2/6/5 120/116/104 3/8/7
f 8/2/2 115/122/110 114/125/113
f 7/14/13 116/130/118 115/122/110
f 2/6/5 118/143/119 117/119/107
f 3/8/7 119/118/106 4/10/9
f 9/1/1 16/18/17 8/2/2
f 10/4/4 9/20/1 1/5/3
f 11/7/6 10/4/4 2/6/5
f 12/9/8 11/7/6 3/8/7
f 13/11/10 12/9/8 4/10/9
f 6/13/12 14/15/14 13/11/10
f 7/14/13 15/16/15 14/15/14
f 8/2/2 16/18/17 15/16/15
f 17/17/16 24/25/23 16/18/17
f 18/19/18 17/28/16 9/20/1
f 11/7/6 19/21/19 18/19/18
f 12/9/8 20/22/20 19/21/19
f 13/11/10 21/23/21 20/22/20
f 14/15/14 22/31/28 21/23/21
f 23/24/22 22/31/28 14/15/14
f 24/25/23 23/24/22 15/16/15
f 25/26/24 32/34/31 24/25/23
f 26/27/25 25/37/24 17/28/16
f 19/21/19 27/29/26 26/27/25
f 20/22/20 28/30/27 27/29/26
f 21/23/21 29/32/29 28/30/27
f 22/31/28 30/40/36 29/32/29
f 31/33/30 30/40/36 22/31/28
f 32/34/31 31/33/30 23/24/22
f 33/35/32 40/43/39 32/34/31
f 34/36/33 33/46/32 25/37/24
f 35/38/34 34/36/33 26/27/25
f 28/30/27 36/39/35 35/38/34
f 29/32/29 37/41/37 36/39/35
f 30/40/36 38/42/38 37/41/37
f 31/33/30 39/50/45 38/42/38
f 40/43/39 39/50/45 31/33/30
f 33/35/32 41/54/49 48/44/40
f 42/45/41 41/56/49 33/46/32
f 43/47/42 42/45/41 34/36/33
f 44/48/43 43/47/42 35/38/34
f 45/49/44 44/48/43 36/39/35
f 38/42/38 46/51/46 45/49/44
f 39/50/45 47/52/47 46/51/46
f 40/43/39 48/44/40 47/52/47
f 49/53/48 56/62/55 48/44/40
f 42/45/41 50/57/50 49/55/48
f 43/47/42 51/58/51 50/57/50
f 44/48/43 52/59/52 51/58/51
f 45/49/44 53/67/59 52/59/52
f 54/60/53 53/67/59 45/49/44
f 55/61/54 54/60/53 46/51/46
f 56/62/55 55/61/54 47/52/47
f 57/63/56 64/71/63 56/62/55
f 50/57/50 58/65/57 57/64/56
f 51/58/51 59/66/58 58/65/57
f 52/59/52 60/68/60 59/66/58
f 53/67/59 61/77/69 60/68/60
f 62/69/61 61/77/69 53/67/59
f 63/70/62 62/69/61 54/60/53
f 64/71/63 63/70/62 55/61/54
f 57/63/56 65/81/65 72/72/64
f 58/65/57 66/74/66 65/73/65
f 59/66/58 67/75/67 66/74/66
f 60/68/60 68/84/74 67/75/67
f 69/76/68 68/84/74 60/68/60
f 70/78/70 69/76/68 61/77/69
f 71/79/71 70/78/70 62/69/61
f 72/72/64 71/79/71 63/70/62
f 73/80/72 80/89/79 72/72/64
f 66/74/66 74/83/73 73/82/72
f 67/75/67 75/85/75 74/83/73
f 68/84/74 76/86/76 75/85/75
f 69/76/68 77/94/83 76/86/76
f 78/87/77 77/94/83 69/76/68
f 79/88/78 78/87/77 70/78/70
f 80/89/79 79/88/78 71/79/71
f 81/90/80 88/98/87 80/89/79
f 74/83/73 82/92/81 81/91/80
f 75/85/75 83/93/82 82/92/81
f 76/86/76 84/95/84 83/93/82
f 77/94/83 85/103/91 84/95/84
f 86/96/85 85/103/91 77/94/83
f 87/97/86 86/96/85 78/87/77
f 88/98/87 87/97/86 79/88/78
f 89/99/88 96/107/95 88/98/87
f 82/92/81 90/101/89 89/100/88
f 83/93/82 91/102/90 90/101/89
f 84/95/84 92/104/92 91/102/90
f 85/103/91 93/113/101 92/104/92
f 94/105/93 93/113/101 85/103/91
f 95/106/94 94/105/93 86/96/85
f 96/107/95 95/106/94 87/97/86
f 89/99/88 97/144/97 104/108/96
f 90/101/89 98/110/98 97/109/97
f 91/102/90 99/111/99 98/110/98
f 92/104/92 100/145/121 99/111/99
f 101/112/100 100/145/121 92/104/92
f 102/114/102 101/112/100 93/113/101
f 103/115/103 102/114/102 94/105/93
f 104/108/96 103/115/103 95/106/94
f 120/116/104 107/127/115 108/117/105
f 117/119/107 118/143/119 105/120/108
f 115/122/110 116/130/118 110/123/111
f 114/125/113 115/122/110 111/124/112
f 117/119/107 106/121/109 107/127/115
f 119/118/106 108/117/105 109/128/116
f 121/129/117 109/128/116 110/123/111
f 118/131/119 114/125/113 112/126/114
f 1/3/3 8/2/2 114/125/113
f 5/12/11 121/129/117 116/130/118
f 4/10/9 119/118/106 121/129/117
f 2/6/5 117/119/107 120/116/104
f 8/2/2 7/14/13 115/122/110
f 7/14/13 6/13/12 116/130/118
f 2/6/5 1/5/3 118/143/119
f 3/8/7 120/116/104 119/118/106
