# Blender v2.79 (sub 0) OBJ File: 'money.blend'
# www.blender.org
mtllib money.mtl
o Cylinder
v -0.000000 0.042815 -0.880791
v 0.440396 0.042815 -0.762788
v 0.762788 0.042815 -0.440396
v 0.880791 0.042815 0.000000
v 0.762788 0.042815 0.440396
v 0.440396 0.042815 0.762788
v 0.000000 0.042815 0.880791
v -0.440396 0.042815 0.762788
v -0.762788 0.042815 0.440396
v -0.880791 0.042815 0.000000
v -0.762788 0.042815 -0.440395
v -0.440396 0.042815 -0.762787
v -0.000002 0.042815 -0.260185
v 0.259527 0.042815 -0.260075
v 0.260219 0.042815 0.000036
v 0.260108 0.042815 0.259564
v -0.000002 0.042815 0.260256
v -0.260112 0.042815 0.259499
v -0.260222 0.042815 0.000036
v -0.259466 0.042815 -0.260075
v -0.000002 0.073542 -0.260185
v 0.259527 0.073542 -0.260075
v 0.260219 0.073542 0.000036
v 0.260108 0.073542 0.259564
v -0.000002 0.073542 0.260256
v -0.260112 0.073542 0.259499
v -0.260222 0.073542 0.000036
v -0.259466 0.073542 -0.260075
v 0.000001 0.073542 -0.180164
v 0.179674 0.073542 -0.180088
v 0.180153 0.073542 -0.000012
v 0.180077 0.073542 0.179662
v 0.000001 0.073542 0.180141
v -0.180076 0.073542 0.179617
v -0.180152 0.073542 -0.000012
v -0.179628 0.073542 -0.180088
v 0.440396 0.061429 -0.762788
v -0.000000 0.061429 -0.880791
v -0.517014 0.061392 0.895495
v -0.440396 0.061429 0.762788
v -0.762788 0.061429 0.440396
v -0.895495 0.061392 0.517015
v 0.762788 0.061429 -0.440396
v 0.895495 0.061392 -0.517014
v 0.880791 0.061429 0.000000
v 1.034029 0.061392 0.000000
v 0.762788 0.061429 0.440396
v 0.440396 0.061429 0.762788
v 0.000000 0.061429 0.880791
v -0.880791 0.061429 0.000000
v -0.762788 0.061429 -0.440395
v -1.034029 0.061392 0.000000
v -0.440396 0.061429 -0.762787
v -0.895496 0.061392 -0.517014
v 0.517014 0.061392 -0.895495
v 0.000000 0.061392 -1.034029
v 0.895495 0.061392 0.517014
v 0.517015 0.061392 0.895495
v 0.000000 0.061392 1.034029
v -0.517015 0.061392 -0.895495
v -0.000000 -0.042815 -0.880791
v 0.440396 -0.042815 -0.762788
v 0.762788 -0.042815 -0.440396
v 0.880791 -0.042815 0.000000
v 0.762788 -0.042815 0.440396
v 0.440396 -0.042815 0.762788
v 0.000000 -0.042815 0.880791
v -0.440396 -0.042815 0.762788
v -0.762788 -0.042815 0.440396
v -0.880791 -0.042815 0.000000
v -0.762788 -0.042815 -0.440395
v -0.440396 -0.042815 -0.762787
v -0.000002 -0.042815 -0.260185
v 0.259527 -0.042815 -0.260075
v 0.260219 -0.042815 0.000036
v 0.260108 -0.042815 0.259564
v -0.000002 -0.042815 0.260256
v -0.260112 -0.042815 0.259499
v -0.260222 -0.042815 0.000036
v -0.259466 -0.042815 -0.260075
v -0.000002 -0.073542 -0.260185
v 0.259527 -0.073542 -0.260075
v 0.260219 -0.073542 0.000036
v 0.260108 -0.073542 0.259564
v -0.000002 -0.073542 0.260256
v -0.260112 -0.073542 0.259499
v -0.260222 -0.073542 0.000036
v -0.259466 -0.073542 -0.260075
v 0.000001 -0.073542 -0.180164
v 0.179674 -0.073542 -0.180088
v 0.180153 -0.073542 -0.000012
v 0.180077 -0.073542 0.179662
v 0.000001 -0.073542 0.180141
v -0.180076 -0.073542 0.179617
v -0.180152 -0.073542 -0.000012
v -0.179628 -0.073542 -0.180088
v 0.440396 -0.061429 -0.762788
v -0.000000 -0.061429 -0.880791
v -0.517014 -0.061392 0.895495
v -0.440396 -0.061429 0.762788
v -0.762788 -0.061429 0.440396
v -0.895495 -0.061392 0.517015
v 0.762788 -0.061429 -0.440396
v 0.895495 -0.061392 -0.517014
v 0.880791 -0.061429 0.000000
v 1.034029 -0.061392 0.000000
v 0.762788 -0.061429 0.440396
v 0.440396 -0.061429 0.762788
v 0.000000 -0.061429 0.880791
v -0.880791 -0.061429 0.000000
v -0.762788 -0.061429 -0.440395
v -1.034029 -0.061392 0.000000
v -0.440396 -0.061429 -0.762787
v -0.895496 -0.061392 -0.517014
v 0.517014 -0.061392 -0.895495
v 0.000000 -0.061392 -1.034029
v 0.895495 -0.061392 0.517014
v 0.517015 -0.061392 0.895495
v 0.000000 -0.061392 1.034029
v -0.517015 -0.061392 -0.895495
vt 0.969336 0.499999
vt 0.969336 0.334165
vt 0.969336 0.499999
vt 0.974343 0.334166
vt 0.974343 0.500000
vt 0.974343 0.334166
vt 0.713172 0.960118
vt 0.640246 0.928660
vt 0.642412 0.926082
vt 0.708858 0.676372
vt 0.791757 0.672960
vt 0.791065 0.676167
vt 0.969337 0.831669
vt 0.969337 0.665834
vt 0.969337 0.831669
vt 0.576095 0.053846
vt 0.715931 0.193687
vt 0.497626 0.271882
vt 0.974343 0.002496
vt 0.974343 0.168331
vt 0.974343 0.002496
vt 0.921734 0.646443
vt 0.912214 0.566054
vt 0.921734 0.566054
vt 0.767112 0.384711
vt 0.497651 0.497529
vt 0.497953 0.384706
vt 0.715924 0.575733
vt 0.576083 0.715570
vt 0.385059 0.766751
vt 0.003020 0.384698
vt 0.272259 0.272159
vt 0.272210 0.384702
vt 0.272256 0.497273
vt 0.054201 0.575722
vt 0.385079 0.497575
vt 0.054207 0.193676
vt 0.194049 0.053840
vt 0.194037 0.715563
vt 0.385072 0.002659
vt 0.385083 0.271832
vt 0.912214 0.485647
vt 0.921734 0.485647
vt 0.912214 0.405058
vt 0.921734 0.405058
vt 0.921734 0.324650
vt 0.912213 0.244061
vt 0.921734 0.244061
vt 0.921734 0.083084
vt 0.912214 0.002496
vt 0.921734 0.002496
vt 0.912213 0.163472
vt 0.921734 0.163472
vt 0.912214 0.324650
vt 0.912213 0.083084
vt 0.974343 0.500000
vt 0.974343 0.665834
vt 0.974343 0.168331
vt 0.969336 0.168332
vt 0.969337 0.002500
vt 0.969336 0.168332
vt 0.969336 0.334165
vt 0.969337 0.665834
vt 0.969337 0.997504
vt 0.969337 0.997504
vt 0.864971 0.921519
vt 0.796215 0.963046
vt 0.795465 0.959638
vt 0.599696 0.782392
vt 0.636829 0.712084
vt 0.639270 0.714462
vt 0.903832 0.776105
vt 0.907861 0.854495
vt 0.904583 0.853712
vt 0.597643 0.861481
vt 0.600842 0.860434
vt 0.165835 0.957444
vt 0.221504 0.932630
vt 0.246243 0.957413
vt 0.110183 0.932625
vt 0.165837 0.932651
vt 0.165842 0.796199
vt 0.110050 0.821180
vt 0.085254 0.796429
vt 0.246461 0.876825
vt 0.221655 0.876838
vt 0.221633 0.821171
vt 0.165842 0.821020
vt 0.085216 0.876817
vt 0.110023 0.876833
vt 0.085446 0.957406
vt 0.246430 0.796417
vt 0.862593 0.336862
vt 0.849804 0.281070
vt 0.849804 0.336862
vt 0.862593 0.281070
vt 0.849804 0.225278
vt 0.862593 0.392515
vt 0.849804 0.392515
vt 0.862593 0.448308
vt 0.849804 0.448308
vt 0.862593 0.225278
vt 0.849804 0.169611
vt 0.862593 0.113819
vt 0.849804 0.058152
vt 0.849804 0.113819
vt 0.862593 0.058152
vt 0.849804 0.002498
vt 0.712503 0.963322
vt 0.622609 0.947779
vt 0.708056 0.672969
vt 0.798241 0.647300
vt 0.867408 0.923895
vt 0.802366 0.988981
vt 0.596403 0.781620
vt 0.618693 0.692930
vt 0.907020 0.775052
vt 0.933033 0.861596
vt 0.572516 0.868568
vt 0.864001 0.708390
vt 0.932035 0.767942
vt 0.571141 0.774581
vt 0.885510 0.943029
vt 0.701947 0.647001
vt 0.706172 0.988983
vt 0.881658 0.689291
vt 0.861838 0.710965
vt 0.708801 0.676379
vt 0.795409 0.959645
vt 0.974343 0.665834
vt 0.974343 0.831667
vt 0.640246 0.928660
vt 0.713172 0.960118
vt 0.642412 0.926082
vt 0.791757 0.672960
vt 0.708858 0.676372
vt 0.791065 0.676167
vt 0.576095 0.053846
vt 0.497626 0.271882
vt 0.715931 0.193687
vt 0.912214 0.566054
vt 0.921734 0.646443
vt 0.921734 0.566054
vt 0.767112 0.384711
vt 0.497651 0.497529
vt 0.715924 0.575733
vt 0.576083 0.715570
vt 0.385059 0.766751
vt 0.003020 0.384698
vt 0.272259 0.272159
vt 0.054207 0.193676
vt 0.272256 0.497273
vt 0.054201 0.575722
vt 0.194037 0.715563
vt 0.194049 0.053840
vt 0.385072 0.002659
vt 0.912214 0.485647
vt 0.921734 0.485647
vt 0.912214 0.405058
vt 0.921734 0.405058
vt 0.912213 0.244061
vt 0.921734 0.324650
vt 0.921734 0.244061
vt 0.912214 0.002496
vt 0.921734 0.083084
vt 0.921734 0.002496
vt 0.912213 0.163472
vt 0.921734 0.163472
vt 0.912214 0.324650
vt 0.912213 0.083084
vt 0.796215 0.963046
vt 0.864971 0.921519
vt 0.795465 0.959638
vt 0.636829 0.712084
vt 0.599696 0.782392
vt 0.639270 0.714462
vt 0.907861 0.854495
vt 0.903832 0.776105
vt 0.904583 0.853712
vt 0.597643 0.861481
vt 0.600842 0.860434
vt 0.221504 0.932630
vt 0.165835 0.957444
vt 0.246243 0.957413
vt 0.110183 0.932625
vt 0.085446 0.957406
vt 0.110050 0.821180
vt 0.165842 0.796199
vt 0.085254 0.796429
vt 0.246461 0.876825
vt 0.221633 0.821171
vt 0.246430 0.796417
vt 0.085216 0.876817
vt 0.622609 0.947779
vt 0.712503 0.963322
vt 0.798241 0.647300
vt 0.708056 0.672969
vt 0.802366 0.988981
vt 0.867408 0.923895
vt 0.618693 0.692930
vt 0.596403 0.781620
vt 0.933033 0.861596
vt 0.907020 0.775052
vt 0.572516 0.868568
vt 0.932035 0.767942
vt 0.864001 0.708390
vt 0.571141 0.774581
vt 0.701947 0.647001
vt 0.706172 0.988983
vt 0.881658 0.689291
vt 0.861838 0.710965
vt 0.708801 0.676379
vt 0.795409 0.959645
vt 0.862593 0.169611
vt 0.974343 0.831667
vt 0.974343 0.997500
vt 0.912214 0.646443
vt 0.969337 0.002500
vt 0.862593 0.002498
vt 0.912214 0.646443
vt 0.497953 0.384706
vt 0.385079 0.497575
vt 0.272210 0.384702
vt 0.385083 0.271832
vt 0.165837 0.932651
vt 0.165842 0.821020
vt 0.221655 0.876838
vt 0.110023 0.876833
vt 0.885510 0.943029
vt 0.974343 0.997500
vn -1.0000 0.0000 0.0000
vn -0.8660 0.0000 0.5000
vn 0.8660 0.0000 0.5000
vn 1.0000 0.0000 0.0000
vn 0.5000 0.0000 0.8660
vn -0.0000 0.0000 -1.0000
vn -0.5000 0.0000 -0.8660
vn -0.8660 0.0000 -0.5000
vn 0.0000 1.0000 -0.0000
vn 0.0000 0.0000 1.0000
vn -0.0004 0.0000 -1.0000
vn 0.0004 0.0000 -1.0000
vn 1.0000 0.0000 -0.0027
vn 1.0000 0.0000 -0.0011
vn 0.0027 0.0000 1.0000
vn -0.0001 0.0000 1.0000
vn -1.0000 0.0000 -0.0012
vn -1.0000 0.0000 -0.0029
vn -0.0029 0.0000 1.0000
vn 1.0000 0.0000 0.0004
vn -1.0000 0.0000 0.0004
vn 0.8660 0.0000 -0.5000
vn -0.5000 0.0000 0.8660
vn 0.5000 0.0000 -0.8660
vn 0.0029 0.0000 -1.0000
vn 0.0001 0.0000 -1.0000
vn -0.0027 0.0000 -1.0000
vn 1.0000 0.0000 0.0012
vn 1.0000 0.0000 -0.0004
vn 1.0000 0.0000 0.0029
vn -1.0000 0.0000 -0.0004
vn -1.0000 0.0000 0.0011
vn -0.0004 0.0000 1.0000
vn 0.0004 0.0000 1.0000
vn -0.0001 1.0000 -0.0002
vn -0.0002 1.0000 -0.0001
vn 0.0000 1.0000 0.0002
vn 0.0001 1.0000 0.0002
vn 0.0001 1.0000 -0.0002
vn -0.0000 1.0000 -0.0002
vn -0.0002 1.0000 0.0001
vn -0.0001 1.0000 0.0002
vn 0.0002 1.0000 -0.0000
vn 0.0002 1.0000 -0.0001
vn -0.0002 1.0000 0.0000
vn 0.0002 1.0000 0.0001
vn 0.0000 -1.0000 -0.0000
vn -0.0002 -1.0000 -0.0001
vn -0.0001 -1.0000 -0.0002
vn 0.0001 -1.0000 0.0002
vn 0.0000 -1.0000 0.0002
vn -0.0000 -1.0000 -0.0002
vn 0.0001 -1.0000 -0.0002
vn -0.0001 -1.0000 0.0002
vn -0.0002 -1.0000 0.0001
vn 0.0002 -1.0000 -0.0001
vn 0.0002 -1.0000 -0.0000
vn -0.0002 -1.0000 0.0000
vn 0.0002 -1.0000 0.0001
vn -1.0000 0.0000 0.0027
usemtl None
s 1
f 112/1/1 42/2/2 52/3/1
f 117/4/3 46/5/4 57/6/3
f 12/7/5 51/8/3 11/9/3
f 7/10/6 48/11/7 6/12/7
f 120/13/7 54/14/8 60/15/7
f 9/16/9 8/17/9 18/18/9
f 119/19/10 58/20/5 59/21/10
f 20/22/11 21/23/6 13/24/6
f 7/25/9 18/18/9 8/17/9
f 7/25/9 16/26/9 17/27/9
f 6/28/9 5/29/9 16/26/9
f 4/30/9 16/26/9 5/29/9
f 1/31/9 20/32/9 13/33/9
f 1/31/9 14/34/9 2/35/9
f 4/30/9 14/34/9 15/36/9
f 12/37/9 11/38/9 20/32/9
f 3/39/9 2/35/9 14/34/9
f 10/40/9 20/32/9 11/38/9
f 10/40/9 18/18/9 19/41/9
f 13/24/6 22/42/12 14/43/12
f 14/43/13 23/44/14 15/45/14
f 16/46/15 25/47/16 17/48/16
f 19/49/17 28/50/18 20/51/18
f 17/48/16 26/52/19 18/53/19
f 15/45/14 24/54/20 16/46/20
f 18/53/21 27/55/17 19/49/17
f 106/56/4 44/57/22 46/5/4
f 118/58/5 57/6/3 58/20/5
f 99/59/23 59/60/10 39/61/23
f 102/62/2 39/61/23 42/2/2
f 114/63/8 52/3/1 54/14/8
f 116/64/6 60/15/7 56/65/6
f 2/66/23 38/67/10 1/68/10
f 9/69/22 40/70/24 8/71/24
f 4/72/1 43/73/2 3/74/2
f 11/9/3 50/75/4 10/76/4
f 21/77/9 30/78/9 22/79/9
f 21/77/9 36/80/9 29/81/9
f 25/82/9 34/83/9 26/84/9
f 23/85/9 30/78/9 31/86/9
f 25/82/9 32/87/9 33/88/9
f 27/89/9 34/83/9 35/90/9
f 27/89/9 36/80/9 28/91/9
f 23/85/9 32/87/9 24/92/9
f 34/93/25 93/94/26 94/95/25
f 33/96/26 92/97/27 93/94/26
f 35/98/28 94/95/29 95/99/28
f 36/100/30 95/99/28 96/101/30
f 32/102/31 91/103/32 92/97/31
f 30/104/33 89/105/10 90/106/33
f 29/107/10 96/108/34 89/105/10
f 53/109/35 54/110/36 51/8/36
f 49/111/37 58/112/38 48/11/38
f 37/113/39 56/114/40 38/67/40
f 41/115/41 39/116/42 40/70/42
f 45/117/43 44/118/44 43/73/44
f 51/8/36 52/119/45 50/75/45
f 47/120/46 46/121/43 45/117/43
f 50/75/45 42/122/41 41/115/41
f 37/113/39 44/118/44 55/123/39
f 40/70/42 59/124/37 49/111/37
f 38/67/40 60/125/35 53/109/35
f 48/11/38 57/126/46 47/120/46
f 5/127/8 45/117/1 4/72/1
f 10/76/4 41/115/22 9/69/22
f 3/74/2 37/113/23 2/66/23
f 8/71/24 49/111/6 7/128/6
f 1/129/10 53/109/5 12/7/5
f 6/12/7 47/120/8 5/127/8
f 104/130/22 55/131/24 44/57/22
f 111/132/3 72/133/5 71/134/3
f 108/135/7 67/136/6 66/137/7
f 69/138/47 78/139/47 68/140/47
f 81/141/6 80/142/11 73/143/6
f 78/139/47 67/144/47 68/140/47
f 67/144/47 76/145/47 66/146/47
f 66/146/47 76/145/47 65/147/47
f 76/145/47 64/148/47 65/147/47
f 61/149/47 80/150/47 72/151/47
f 74/152/47 61/149/47 62/153/47
f 64/148/47 74/152/47 63/154/47
f 72/151/47 80/150/47 71/155/47
f 63/154/47 74/152/47 62/153/47
f 80/150/47 70/156/47 71/155/47
f 70/156/47 78/139/47 69/138/47
f 82/157/12 73/143/6 74/158/12
f 83/159/14 74/158/13 75/160/14
f 85/161/16 76/162/15 77/163/16
f 88/164/18 79/165/17 80/166/18
f 86/167/19 77/163/16 78/168/19
f 84/169/20 75/160/14 76/162/20
f 87/170/17 78/168/21 79/165/17
f 98/171/10 62/172/23 61/173/10
f 100/174/24 69/175/22 68/176/24
f 103/177/2 64/178/1 63/179/2
f 110/180/4 71/134/3 70/181/4
f 90/182/47 81/183/47 82/184/47
f 81/183/47 96/185/47 88/186/47
f 94/187/47 85/188/47 86/189/47
f 83/190/47 90/182/47 82/184/47
f 85/188/47 92/191/47 84/192/47
f 87/193/47 94/187/47 86/189/47
f 96/185/47 87/193/47 88/186/47
f 92/191/47 83/190/47 84/192/47
f 114/194/48 113/195/49 111/132/48
f 118/196/50 109/197/51 108/135/50
f 116/198/52 97/199/53 98/171/52
f 99/200/54 101/201/55 100/174/54
f 104/202/56 105/203/57 103/177/56
f 112/204/58 111/132/48 110/180/58
f 106/205/57 107/206/59 105/203/57
f 102/207/55 110/180/58 101/201/55
f 97/199/53 104/202/56 103/177/56
f 119/208/51 100/174/54 109/197/51
f 120/209/49 98/171/52 113/195/49
f 117/210/59 108/135/50 107/206/59
f 105/203/1 65/211/8 64/178/1
f 101/201/22 70/181/4 69/175/22
f 97/199/23 63/179/2 62/172/23
f 109/197/6 68/176/24 67/212/6
f 113/195/5 61/213/10 72/133/5
f 107/206/8 66/137/7 65/211/8
f 31/214/32 90/106/60 91/103/32
f 115/215/24 56/216/6 55/131/24
f 112/1/1 102/62/2 42/2/2
f 117/4/3 106/56/4 46/5/4
f 12/7/5 53/109/5 51/8/3
f 7/10/6 49/111/6 48/11/7
f 120/13/7 114/63/8 54/14/8
f 119/19/10 118/58/5 58/20/5
f 20/22/11 28/217/11 21/23/6
f 7/25/9 17/27/9 18/18/9
f 7/25/9 6/28/9 16/26/9
f 4/30/9 15/36/9 16/26/9
f 1/31/9 12/37/9 20/32/9
f 1/31/9 13/33/9 14/34/9
f 4/30/9 3/39/9 14/34/9
f 10/40/9 19/41/9 20/32/9
f 10/40/9 9/16/9 18/18/9
f 13/24/6 21/23/6 22/42/12
f 14/43/13 22/42/13 23/44/14
f 16/46/15 24/54/15 25/47/16
f 19/49/17 27/55/17 28/50/18
f 17/48/16 25/47/16 26/52/19
f 15/45/14 23/44/14 24/54/20
f 18/53/21 26/52/21 27/55/17
f 106/56/4 104/130/22 44/57/22
f 118/58/5 117/4/3 57/6/3
f 99/59/23 119/218/10 59/60/10
f 102/62/2 99/59/23 39/61/23
f 114/63/8 112/1/1 52/3/1
f 116/64/6 120/13/7 60/15/7
f 2/66/23 37/113/23 38/67/10
f 9/69/22 41/115/22 40/70/24
f 4/72/1 45/117/1 43/73/2
f 11/9/3 51/8/3 50/75/4
f 21/77/9 29/81/9 30/78/9
f 21/77/9 28/91/9 36/80/9
f 25/82/9 33/88/9 34/83/9
f 23/85/9 22/79/9 30/78/9
f 25/82/9 24/92/9 32/87/9
f 27/89/9 26/84/9 34/83/9
f 27/89/9 35/90/9 36/80/9
f 23/85/9 31/86/9 32/87/9
f 34/93/25 33/96/26 93/94/26
f 33/96/26 32/102/27 92/97/27
f 35/98/28 34/93/29 94/95/29
f 36/100/30 35/98/28 95/99/28
f 32/102/31 31/214/32 91/103/32
f 30/104/33 29/107/10 89/105/10
f 29/107/10 36/219/34 96/108/34
f 53/109/35 60/125/35 54/110/36
f 49/111/37 59/124/37 58/112/38
f 37/113/39 55/123/39 56/114/40
f 41/115/41 42/122/41 39/116/42
f 45/117/43 46/121/43 44/118/44
f 51/8/36 54/110/36 52/119/45
f 47/120/46 57/126/46 46/121/43
f 50/75/45 52/119/45 42/122/41
f 37/113/39 43/73/44 44/118/44
f 40/70/42 39/116/42 59/124/37
f 38/67/40 56/114/40 60/125/35
f 48/11/38 58/112/38 57/126/46
f 5/127/8 47/120/8 45/117/1
f 10/76/4 50/75/4 41/115/22
f 3/74/2 43/73/2 37/113/23
f 8/71/24 40/70/24 49/111/6
f 1/129/10 38/67/10 53/109/5
f 6/12/7 48/11/7 47/120/8
f 104/130/22 115/215/24 55/131/24
f 111/132/3 113/195/5 72/133/5
f 108/135/7 109/197/6 67/136/6
f 81/141/6 88/220/11 80/142/11
f 78/139/47 77/221/47 67/144/47
f 67/144/47 77/221/47 76/145/47
f 76/145/47 75/222/47 64/148/47
f 61/149/47 73/223/47 80/150/47
f 74/152/47 73/223/47 61/149/47
f 64/148/47 75/222/47 74/152/47
f 80/150/47 79/224/47 70/156/47
f 70/156/47 79/224/47 78/139/47
f 82/157/12 81/141/6 73/143/6
f 83/159/14 82/157/13 74/158/13
f 85/161/16 84/169/15 76/162/15
f 88/164/18 87/170/17 79/165/17
f 86/167/19 85/161/16 77/163/16
f 84/169/20 83/159/14 75/160/14
f 87/170/17 86/167/21 78/168/21
f 98/171/10 97/199/23 62/172/23
f 100/174/24 101/201/22 69/175/22
f 103/177/2 105/203/1 64/178/1
f 110/180/4 111/132/3 71/134/3
f 90/182/47 89/225/47 81/183/47
f 81/183/47 89/225/47 96/185/47
f 94/187/47 93/226/47 85/188/47
f 83/190/47 91/227/47 90/182/47
f 85/188/47 93/226/47 92/191/47
f 87/193/47 95/228/47 94/187/47
f 96/185/47 95/228/47 87/193/47
f 92/191/47 91/227/47 83/190/47
f 114/194/48 120/209/49 113/195/49
f 118/196/50 119/208/51 109/197/51
f 116/198/52 115/229/53 97/199/53
f 99/200/54 102/207/55 101/201/55
f 104/202/56 106/205/57 105/203/57
f 112/204/58 114/194/48 111/132/48
f 106/205/57 117/210/59 107/206/59
f 102/207/55 112/204/58 110/180/58
f 97/199/53 115/229/53 104/202/56
f 119/208/51 99/200/54 100/174/54
f 120/209/49 116/198/52 98/171/52
f 117/210/59 118/196/50 108/135/50
f 105/203/1 107/206/8 65/211/8
f 101/201/22 110/180/4 70/181/4
f 97/199/23 103/177/2 63/179/2
f 109/197/6 100/174/24 68/176/24
f 113/195/5 98/171/10 61/213/10
f 107/206/8 108/135/7 66/137/7
f 31/214/32 30/104/60 90/106/60
f 115/215/24 116/230/6 56/216/6
